<svg xmlns="http://www.w3.org/2000/svg" xml:space="preserve" style="fill-rule:evenodd;clip-rule:evenodd;stroke-linejoin:round;stroke-miterlimit:2" viewBox="0 0 596 842"><path d="M539.76 292c0 33.17-20.96 63.92-54.88 80.5-33.92 16.6-75.84 16.6-109.76 0-33.92-16.58-54.88-47.33-54.88-80.5h219.52ZM260 292c0 33.17-20.96 63.92-54.88 80.5-33.92 16.6-75.85 16.6-109.76 0-33.92-16.58-54.89-47.33-54.89-80.5H260Z" style="fill:#444;fill-rule:nonzero"/><path d="M455.76 151.43c-30.38 64.46-72.19 77.09-113.59 91.54l66.9 48.09c-3.13-2.02 56.6-16.61 63.88-143.25.07-14.04-11.33-9.33-17.19 3.62ZM120.17 150.81c30.37 64.46 72.18 77.09 113.58 91.54l-66.9 48.08c3.14-2.01-56.6-16.6-63.87-143.24-.07-14.04 11.33-9.33 17.19 3.62Z" style="fill:#b3b3b3;fill-rule:nonzero"/><ellipse cx="291.07" cy="427.12" rx="192.08" ry="193.48" style="fill:#e6e6e6"/><ellipse cx="378.08" cy="375.42" rx="96.19" ry="99.64" style="fill:#4d4d4d"/><ellipse cx="290.05" cy="498.96" rx="140.98" ry="97.82" style="fill:#ffb5d2"/><ellipse cx="183.75" cy="389.69" rx="19.81" ry="20.69" style="fill:#444"/><ellipse cx="218.14" cy="501.56" rx="20.95" ry="21.93" style="fill:#de719c"/><ellipse cx="396.95" cy="390.93" rx="20.95" ry="21.93" style="fill:#444"/><ellipse cx="362.18" cy="501.64" rx="20.95" ry="21.93" style="fill:#de719c"/></svg>