<?xml version="1.0" encoding="utf-8"?>
<!-- Generator: Adobe Illustrator 22.0.1, SVG Export Plug-In . SVG Version: 6.00 Build 0)  -->
<svg version="1.1" id="Layer_2" xmlns="http://www.w3.org/2000/svg" xmlns:xlink="http://www.w3.org/1999/xlink" x="0px" y="0px"
	 viewBox="0 0 334 321" style="enable-background:new 0 0 334 321;" xml:space="preserve">
<style type="text/css">
	.st0{fill:#B3B3B3;}
	.st1{fill:#444444;}
	.st2{fill:#FFFFFF;}
	.st3{fill:#4D4D4D;}
	.st4{fill:#FFB5D2;}
	.st5{fill:#DE719C;}
	.st6{fill:#333333;}
</style>
<path class="st0" d="M130.6,67.6c-11.3-2.7-30.8-9-48.8-23.8c-12-9.9-19.2-20.3-20.6-22.3c-4.6-6.8-7.7-13.1-9.8-17.9
	c-0.8-2-2.5-3.5-4.3-3.5c-2.5-0.1-4.6,2.4-5.1,5.9c-0.8,6.4-2.4,35.5,12.9,60.4c10.4,16.9,21,28.8,28.6,35.1
	C99.3,90.1,115,78.9,130.6,67.6z"/>
<path class="st0" d="M203,67.6c11.3-2.7,30.8-9,48.8-23.8c12-9.9,19.2-20.3,20.6-22.3c4.6-6.8,7.7-13.1,9.8-17.9
	c0.8-2,2.5-3.5,4.3-3.5c2.5-0.1,4.6,2.4,5.1,5.9c0.8,6.4,2.4,35.5-12.9,60.4c-10.4,16.9-21,28.8-28.6,35.1
	C234.3,90.1,218.7,78.9,203,67.6z"/>
<path class="st1" d="M109,101.4c0,18.8-10.4,36.3-27.2,45.7c-16.8,9.4-37.7,9.4-54.5,0C10.4,137.7,0,120.2,0,101.4H109z"/>
<path class="st1" d="M334,101.4c0,18.8-10.4,36.3-27.2,45.7c-16.8,9.4-37.7,9.4-54.5,0c-16.8-9.4-27.3-26.9-27.3-45.7H334z"/>
<circle class="st2" cx="167" cy="191.4" r="129"/>
<ellipse class="st3" cx="226" cy="156.9" rx="65" ry="66.5"/>
<ellipse class="st4" cx="167" cy="239.9" rx="95" ry="65.5"/>
<circle class="st5" cx="119" cy="241.4" r="14"/>
<circle class="st5" cx="215" cy="241.4" r="14"/>
<circle class="st6" cx="95.5" cy="166.9" r="13.5"/>
<circle class="st6" cx="238.5" cy="166.9" r="13.5"/>
</svg>
